<?xml version="1.0" encoding="UTF-8"?>
<svg id="Layer_1" data-name="Layer 1" xmlns="http://www.w3.org/2000/svg" viewBox="0 0 78 90.08">
  <defs>
    <style>
      .cls-1 {
        fill: #005cd3;
      }

      .cls-2 {
        fill: #fff;
      }
    </style>
  </defs>
  <rect class="cls-1" width="78" height="90.08"/>
  <path class="cls-2" d="M50.79,24.62v-10.73l-11.78-6.8-11.79,6.8v10.73l-9.28-5.37-11.79,6.81v13.61l9.29,5.37-9.29,5.35v13.62l11.79,6.81,9.28-5.36v10.72l11.79,6.81,11.78-6.81v-10.72l9.29,5.37,11.78-6.81v-13.62l-9.28-5.35,9.28-5.37v-13.6l-11.78-6.81-9.29,5.37ZM27.22,62.57l-9.28,5.36-9.29-5.37v-10.73l9.29-5.35,9.28,5.35v10.73ZM27.22,48.95l-6.78-3.91,6.78-3.92v7.83ZM27.22,38.23l-9.28,5.37-9.29-5.37v-10.72l9.29-5.37,9.28,5.37v10.72ZM29.72,28.95l6.79,3.91-6.79,3.92v-7.83ZM29.72,53.28l6.79,3.92-6.79,3.92v-7.85ZM48.29,74.73l-9.28,5.37-9.29-5.37v-10.72l9.29-5.37,9.28,5.37v10.72ZM48.29,61.12l-6.78-3.92,6.78-3.92v7.84ZM48.29,50.39l-9.28,5.36-9.29-5.37v-10.72l9.29-5.37,9.28,5.36v10.72ZM48.29,36.78l-6.78-3.92,6.78-3.91v7.83ZM48.29,26.06l-9.28,5.35-9.29-5.35v-10.73l9.29-5.35,9.28,5.35v10.73ZM50.79,41.11l6.79,3.92-6.79,3.91v-7.83ZM69.36,51.83v10.73l-9.28,5.36-9.29-5.37v-10.73l9.29-5.35,9.28,5.35ZM69.36,38.23l-9.28,5.37-9.29-5.37v-10.72l9.29-5.37,9.28,5.37v10.72Z"/>
</svg>
