<?xml version="1.0" encoding="UTF-8"?>
<svg id="Layer_1" data-name="Layer 1" xmlns="http://www.w3.org/2000/svg" viewBox="0 0 231.91 118.14">
  <defs>
    <style>
      .cls-1 {
        fill: none;
      }

      .cls-2 {
        fill: #005cd3;
      }

      .cls-3 {
        fill: #fff;
      }
    </style>
  </defs>
  <rect class="cls-3" x=".08" y="-.22" width="231.91" height="118.14"/>
  <rect class="cls-1" y="-.44" width="231.91" height="118.14"/>
  <g>
    <path class="cls-2" d="M66.18,36.11v-10.73l-11.78-6.8-11.79,6.8v10.73l-9.28-5.37-11.79,6.81v13.61l9.29,5.37-9.29,5.35v13.62l11.79,6.81,9.28-5.36v10.72l11.79,6.81,11.78-6.81v-10.72l9.29,5.37,11.78-6.81v-13.62l-9.28-5.35,9.28-5.37v-13.6l-11.78-6.81-9.29,5.37ZM42.61,74.05l-9.28,5.36-9.29-5.37v-10.73l9.29-5.35,9.28,5.35v10.73ZM42.61,60.43l-6.78-3.91,6.78-3.92v7.83ZM42.61,49.71l-9.28,5.37-9.29-5.37v-10.72l9.29-5.37,9.28,5.37v10.72ZM45.11,40.44l6.79,3.91-6.79,3.92v-7.83ZM45.11,64.76l6.79,3.92-6.79,3.92v-7.85ZM63.68,86.21l-9.28,5.37-9.29-5.37v-10.72l9.29-5.37,9.28,5.37v10.72ZM63.68,72.61l-6.78-3.92,6.78-3.92v7.84ZM63.68,61.88l-9.28,5.36-9.29-5.37v-10.72l9.29-5.37,9.28,5.36v10.72ZM63.68,48.27l-6.78-3.92,6.78-3.91v7.83ZM63.68,37.55l-9.28,5.35-9.29-5.35v-10.73l9.29-5.35,9.28,5.35v10.73ZM66.18,52.6l6.79,3.92-6.79,3.91v-7.83ZM84.75,63.32v10.73l-9.28,5.36-9.29-5.37v-10.73l9.29-5.35,9.28,5.35ZM84.75,49.71l-9.28,5.37-9.29-5.37v-10.72l9.29-5.37,9.28,5.37v10.72ZM159.82,78.67c-1.81,1.23-4.07,1.84-6.77,1.84-3.92,0-6.93-1.24-9.01-3.72-2.09-2.47-3.13-5.75-3.13-9.82v-5.3c0-4.07,1.05-7.34,3.13-9.82,2.08-2.48,5.06-3.72,8.94-3.72,2.55,0,4.68.56,6.4,1.69,1.71,1.13,2.96,2.75,3.75,4.86l3.38-1.69c-.98-2.5-2.6-4.55-4.86-6.14-2.25-1.59-5.15-2.39-8.68-2.39-5.2,0-9.26,1.74-12.18,5.22-2.92,3.48-4.38,8.36-4.38,14.64s1.45,11.16,4.34,14.64c2.9,3.48,6.99,5.22,12.29,5.22h0c3.68,0,6.67-.81,8.98-2.45,2.31-1.65,4-3.72,5.08-6.22l-3.09-1.99c-.98,2.21-2.38,3.92-4.19,5.15ZM208.62,47.36c-1.15-1.94-3.2-2.91-6.14-2.91-2.26,0-4.02.56-5.3,1.69-1.27,1.13-2.25,2.55-2.94,4.27h-.15c-.3-1.87-1.03-3.32-2.21-4.38-1.17-1.05-2.89-1.58-5-1.58s-3.74.52-4.89,1.55c-1.15,1.03-2.02,2.28-2.61,3.75h-.22v-4.42h-3.9v37.97h-.01s3.9,0,3.9,0v-28.04c0-2.45.61-4.28,1.84-5.48s2.72-1.8,4.49-1.8c1.86,0,3.22.64,4.08,1.91.86,1.28,1.29,3.46,1.29,6.55v26.86h3.9v-28.04c0-2.45.61-4.28,1.84-5.48,1.23-1.2,2.72-1.8,4.49-1.8,1.86,0,3.22.64,4.08,1.91.86,1.28,1.29,3.46,1.29,6.55v26.86h3.9v-27.52c0-3.68-.58-6.49-1.73-8.43Z"/>
    <g>
      <path class="cls-2" d="M115,99.12c-11.77,0-16.63-3.53-16.63-9.49,0-4.27,2.5-6.7,6.7-7.95v-.59c-2.43-.96-3.61-2.65-3.61-5.15,0-3.68,2.94-5.59,6.62-6.55v-.29c-4.49-1.91-7.14-6.03-7.14-11.48,0-7.73,5.44-12.95,13.91-12.95,3.02,0,5.67.66,7.8,1.91v-1.55c0-2.35,1.03-3.9,3.61-3.9h7.43v3.68h-8.68v3.46c2.43,2.21,3.83,5.44,3.83,9.34,0,7.65-5.59,12.88-13.98,12.88-1.32,0-2.5-.07-3.83-.37-3.09.74-5.89,2.28-5.89,4.93,0,2.21,1.99,3.31,6.18,3.31h9.05c9.2,0,13.17,3.75,13.17,9.64,0,7.58-6.47,11.11-18.54,11.11ZM120.37,82.27h-12.43c-3.38,1.1-5.45,3.16-5.45,6.55,0,3.97,3.31,6.92,9.93,6.92h4.93c7.5,0,12.21-2.5,12.21-7.58,0-3.6-2.35-5.89-9.2-5.89ZM124.42,58.8v-2.43c0-4.93-3.24-8.39-9.57-8.39s-9.49,3.46-9.49,8.39v2.43c0,4.86,3.31,8.39,9.49,8.39s9.57-3.53,9.57-8.39Z"/>
      <path class="cls-2" d="M136.49,64.54c0-12.51,6.18-19.87,16.55-19.87,7.06,0,11.63,3.53,13.54,8.54l-3.38,1.69c-1.54-4.19-5.08-6.55-10.15-6.55-7.73,0-12.07,5.44-12.07,13.54v5.3c0,8.09,4.34,13.54,12.14,13.54,5.37,0,8.98-2.65,10.96-6.99l3.09,1.99c-2.13,4.93-6.77,8.68-14.05,8.68-10.52,0-16.63-7.43-16.63-19.87Z"/>
      <path class="cls-2" d="M175.34,83.52v-37.97h3.9v4.41h.22c1.18-2.94,3.31-5.3,7.5-5.3s6.62,2.28,7.21,5.96h.15c1.32-3.38,3.75-5.96,8.24-5.96,5.81,0,7.87,4.05,7.87,11.33v27.52h-3.9v-26.86c0-6.18-1.62-8.46-5.37-8.46-3.53,0-6.33,2.43-6.33,7.28v28.03h-3.9v-26.86c0-6.18-1.62-8.46-5.37-8.46-3.53,0-6.33,2.43-6.33,7.28v28.03h-3.9Z"/>
    </g>
  </g>
</svg>
