<?xml version="1.0" encoding="UTF-8"?>
<svg id="Layer_1" data-name="Layer 1" xmlns="http://www.w3.org/2000/svg" viewBox="0 0 231.91 118.14">
  <defs>
    <style>
      .cls-1 {
        fill: none;
      }

      .cls-2 {
        fill: #dd744b;
      }
    </style>
  </defs>
  <rect x=".08" y="0" width="231.91" height="118.14"/>
  <rect class="cls-1" width="231.91" height="118.14"/>
  <g>
    <path class="cls-2" d="M205.6,50.95c.57,1.31.85,3.22.85,5.73v26.86h.09v-26.65c0-2.66-.3-4.6-.94-5.94ZM190,50.95c.57,1.31.85,3.22.85,5.73v26.86h.09v-26.65c0-2.66-.3-4.6-.94-5.94ZM161.65,47.08c-2.25-1.59-5.15-2.39-8.68-2.39-5.2,0-9.26,1.74-12.18,5.22-2.92,3.48-4.38,8.36-4.38,14.64,0,4.88.88,8.92,2.63,12.1-.1-.21-.21-.42-.31-.63-.2-.4-.38-.81-.54-1.23-.01-.04-.03-.08-.05-.12-.13-.33-.25-.67-.36-1.02-.01-.03-.02-.06-.03-.09-.24-.75-.45-1.53-.62-2.35-.03-.1-.05-.2-.07-.31-.08-.4-.15-.8-.21-1.21-.04-.23-.07-.47-.1-.71-.1-.77-.17-1.56-.21-2.38,0-.18-.02-.36-.02-.55-.02-.42-.03-.85-.03-1.29,0-12.5,6.18-19.86,16.55-19.86,6.97,0,11.51,3.43,13.45,8.33h.02c-.98-2.51-2.6-4.56-4.86-6.15ZM164.01,73.74c-.98,2.21-2.38,3.92-4.19,5.15s-4.07,1.84-6.77,1.84c-3.92,0-6.93-1.24-9.01-3.72-.78-.93-1.42-1.97-1.91-3.12,1.76,4.38,5.53,7.05,10.99,7.05s8.98-2.65,10.96-6.99l2.96,1.91s.04-.09.06-.13l-3.09-1.99ZM87.25,37.78l-11.77-6.81-9.3,5.37v-10.74l-11.78-6.79-11.79,6.79v10.73l-9.28-5.36-11.79,6.81v13.6l9.29,5.37-9.29,5.35v13.62l11.79,6.81,9.28-5.36v10.71l11.79,6.81,11.78-6.81v-10.71l9.3,5.36,11.77-6.81v-13.62l-9.28-5.35,9.28-5.37v-13.6ZM42.61,74.28l-9.28,5.36-9.29-5.36v-10.73l9.29-5.36,9.28,5.36v10.73ZM42.61,60.66l-6.78-3.91,6.78-3.92v7.83ZM42.61,49.94l-9.28,5.37-9.29-5.37v-10.72l9.29-5.36,9.28,5.36v10.72ZM45.11,40.66l6.79,3.92-6.79,3.92v-7.84ZM45.11,64.98l6.79,3.92-6.79,3.93v-7.85ZM63.68,86.44l-9.28,5.37-9.29-5.37v-10.72l9.29-5.36,9.28,5.36v10.72ZM63.68,72.83l-6.78-3.92,6.78-3.92v7.84ZM63.68,62.1l-9.28,5.37-9.29-5.37v-10.72l9.29-5.36,9.28,5.36v10.72ZM63.68,48.49l-6.78-3.92,6.78-3.92v7.84ZM63.68,37.78l-9.28,5.35-9.29-5.35v-10.73l9.29-5.36,9.28,5.36v10.73ZM66.18,52.83l6.79,3.92-6.79,3.91v-7.83ZM84.75,63.54v10.73l-9.28,5.36-9.29-5.36v-10.73l9.29-5.36,9.28,5.36ZM84.75,49.94l-9.28,5.37-9.29-5.37v-10.72l9.29-5.36,9.28,5.36v10.72Z"/>
    <g>
      <path class="cls-2" d="M115,99.34c-11.77,0-16.63-3.53-16.63-9.49,0-4.27,2.5-6.7,6.7-7.95v-.59c-2.43-.96-3.61-2.65-3.61-5.15,0-3.68,2.94-5.59,6.62-6.55v-.29c-4.49-1.91-7.14-6.03-7.14-11.48,0-7.73,5.44-12.95,13.91-12.95,3.02,0,5.67.66,7.8,1.91v-1.55c0-2.35,1.03-3.9,3.61-3.9h7.43v3.68h-8.68v3.46c2.43,2.21,3.83,5.44,3.83,9.34,0,7.65-5.59,12.88-13.98,12.88-1.32,0-2.5-.07-3.83-.37-3.09.74-5.89,2.28-5.89,4.93,0,2.21,1.99,3.31,6.18,3.31h9.05c9.2,0,13.17,3.75,13.17,9.64,0,7.58-6.47,11.11-18.54,11.11ZM120.37,82.49h-12.43c-3.38,1.1-5.45,3.16-5.45,6.55,0,3.97,3.31,6.92,9.93,6.92h4.93c7.5,0,12.21-2.5,12.21-7.58,0-3.6-2.35-5.89-9.2-5.89ZM124.42,59.02v-2.43c0-4.93-3.24-8.39-9.57-8.39s-9.49,3.46-9.49,8.39v2.43c0,4.86,3.31,8.39,9.49,8.39s9.57-3.53,9.57-8.39Z"/>
      <path class="cls-2" d="M167.04,75.86c-1.08,2.44-2.75,4.47-5.02,6.09-2.31,1.64-5.3,2.46-8.98,2.46h0c-5.24-.01-9.29-1.72-12.18-5.11,2.83,3.44,6.99,5.32,12.26,5.32,7.28,0,11.92-3.75,14.05-8.68l-.13-.08ZM140.75,79.19s.07.07.11.12c-.21-.26-.44-.51-.64-.79.17.23.35.45.53.67Z"/>
      <path class="cls-2" d="M167.04,75.86c-1.08,2.44-2.75,4.47-5.02,6.09-2.31,1.64-5.3,2.46-8.98,2.46h0c-5.3-.01-9.39-1.75-12.29-5.23-.18-.22-.36-.44-.53-.67-.29-.39-.56-.81-.82-1.24-1.9-3.24-2.91-7.47-2.91-12.52,0-12.5,6.18-19.86,16.55-19.86,6.97,0,11.51,3.43,13.45,8.33.04.06.06.13.09.2l-3.38,1.7c-1.55-4.2-5.08-6.55-10.16-6.55-7.72,0-12.06,5.44-12.06,13.54v5.29c0,2.27.34,4.33,1,6.12.05.13.1.25.15.37,1.76,4.38,5.53,7.05,10.99,7.05s8.98-2.65,10.96-6.99l2.96,1.91Z"/>
      <path class="cls-2" d="M179.16,45.78v4.2h.08v-4.2h-.08ZM193.62,48.85c.21.55.37,1.14.47,1.79h.05c-.12-.65-.29-1.24-.52-1.79ZM209.38,49.22c.64,1.78.97,4.05.97,6.8v27.52h-3.81v.21h3.9v-27.52c0-2.85-.32-5.2-1.06-7.01Z"/>
      <path class="cls-2" d="M210.35,56.02v27.52h-3.81v-26.65c0-2.66-.3-4.6-.94-5.94-.02-.04-.04-.07-.05-.11-.86-1.7-2.29-2.41-4.38-2.41-3.53,0-6.33,2.43-6.33,7.28v28.04h-3.9v-26.86c0-2.66-.3-4.6-.94-5.94-.02-.04-.04-.07-.05-.11-.86-1.7-2.29-2.41-4.38-2.41-3.53,0-6.33,2.43-6.33,7.28v28.04h-3.9v-.21h-.09.01v-37.98h3.9v4.42h.22c.59-1.47,1.46-2.72,2.61-3.75,1.15-1.03,2.78-1.55,4.89-1.55s3.83.53,5,1.58c.77.69,1.35,1.55,1.74,2.59.21.55.37,1.14.47,1.79h.15c.69-1.72,1.67-3.14,2.94-4.27,1.28-1.13,3.04-1.69,5.3-1.69,2.94,0,4.99.97,6.14,2.91.26.43.49.91.68,1.43.04.06.06.13.08.2.64,1.78.97,4.05.97,6.8Z"/>
    </g>
  </g>
</svg>
